<?xml version="1.0" encoding="utf-8"?>
<!-- Generator: Adobe Illustrator 23.1.1, SVG Export Plug-In . SVG Version: 6.00 Build 0)  -->
<svg version="1.1" id="Layer_1" xmlns="http://www.w3.org/2000/svg" xmlns:xlink="http://www.w3.org/1999/xlink" x="0px" y="0px"
	 viewBox="0 0 1319.04 452.18" style="enable-background:new 0 0 1319.04 452.18;" xml:space="preserve">
<style type="text/css">
	.st0{fill:#FFFFFF;}
	.st1{fill:#5183F5;}
</style>
<g>
	<path class="st1" d="M448.73,254.3c0,6.37,5.57,9.55,12.54,9.55c11.94,0,22.29-6.97,22.29-20.3v-5.17
		C469.83,244.55,448.73,242.76,448.73,254.3z"/>
	<path class="st1" d="M684.96,205.34c-12.14,0-20.1,6.57-22.49,19.11h44.98C705.06,211.91,697.1,205.34,684.96,205.34z"/>
	<path class="st1" d="M1093.06,30.54h-861.4L43.12,222l186.83,199.4h863.12c107.77,0,195.44-87.66,195.44-195.44
		C1288.5,118.19,1200.83,30.54,1093.06,30.54z M241.65,176.64c10.92,13.47,16.93,30.44,16.93,47.8s-6.01,34.33-16.93,47.79
		c-3.5,4.31-7.46,8.22-11.79,11.65c4.32,3.43,8.28,7.32,11.79,11.65c10.92,13.46,16.93,30.43,16.93,47.79
		c0,14.77-4.35,29.26-12.39,41.54L143.12,275.99c8.89-9.22,15.52-20.41,19.34-32.69c8.44-27.1,2.25-56.54-15.95-77.92
		c0,0,99.71-101.32,99.7-101.34h0.09l-0.06,0.06c7.99,12.27,12.33,26.72,12.33,41.47c0,17.36-6.01,34.33-16.93,47.79
		c-3.5,4.32-7.46,8.22-11.79,11.65C234.18,168.43,238.15,172.33,241.65,176.64z M406.34,206.93h-24.48v40.6
		c0,9.15,4.18,13.14,13.53,13.14c3.38,0,7.56-0.6,10.95-1.79v23.88c-3.98,1.19-10.75,2.39-16.72,2.39
		c-21.1,0-36.62-8.16-36.62-36.02v-42.19h-14.33v-23.29h6.06c7.79,0,14.11-6.32,14.11-14.11v-15.34h23.02v29.45h24.48V206.93z
		 M512.02,283.16h-27.86v-15.13c-6.37,12.14-17.91,17.12-31.64,17.12c-16.52,0-32.64-8.76-32.64-28.46
		c0-42.19,63.29-23.28,63.29-42.79c0-6.97-6.77-11.15-15.72-11.15c-9.95,0-16.12,5.37-16.12,15.13h-28.46
		c0-26.07,22.29-36.22,45.38-36.22c22.89,0,43.78,9.15,43.78,33.04V283.16z M599.19,283.16l-36.22-52.14v52.14h-28.86V141.9h28.86
		v84.73l32.84-42.99h35.23l-38.41,44.98l40.6,54.53H599.19z M734.91,241.36h-72.64c2.39,13.14,10.35,20.1,23.48,20.1
		c9.16,0,15.13-3.18,17.91-9.75h29.26c-6.17,21.89-23.48,33.43-47.96,33.43c-29.26,0-50.35-21.29-50.35-51.74
		c0-30.45,21.1-51.75,50.35-51.75c29.26,0,50.35,21.29,50.35,51.75C735.31,236.19,735.11,238.77,734.91,241.36z M846.76,283.16
		H817.9v-54.93c0-14.93-6.57-22.69-17.91-22.69c-11.34,0-17.91,7.76-17.91,22.69v54.93h-28.86v-99.51h28.46v14.13
		c5.97-10.35,16.52-16.12,28.86-16.12c20.7,0,36.22,13.33,36.22,40V283.16z M915.41,285.15c-29.65,0-51.75-21.1-51.75-51.74
		c0-30.65,22.09-51.75,51.75-51.75c29.65,0,51.75,21.1,51.75,51.75C967.16,264.05,945.07,285.15,915.41,285.15z M1044.37,206.93
		h-24.48v40.6c0,9.15,4.18,13.14,13.53,13.14c3.38,0,7.56-0.6,10.95-1.79v23.88c-3.98,1.19-10.75,2.39-16.72,2.39
		c-21.1,0-36.62-8.16-36.62-36.02v-42.19h-14.33v-23.29h6.06c7.79,0,14.11-6.32,14.11-14.11v-15.34h23.02v29.45h24.48V206.93z
		 M1156.02,241.36h-72.64c2.39,13.14,10.35,20.1,23.48,20.1c9.15,0,15.13-3.18,17.91-9.75h29.26
		c-6.17,21.89-23.48,33.43-47.96,33.43c-29.26,0-50.35-21.29-50.35-51.74c0-30.45,21.1-51.75,50.35-51.75
		c29.26,0,50.35,21.29,50.35,51.75C1156.42,236.19,1156.22,238.77,1156.02,241.36z"/>
	<path class="st1" d="M1106.07,205.34c-12.14,0-20.1,6.57-22.49,19.11h44.98C1126.17,211.91,1118.21,205.34,1106.07,205.34z"/>
	<path class="st1" d="M915.41,207.33c-13.53,0-23.68,10.35-23.68,26.07c0,15.52,10.15,26.07,23.68,26.07
		c13.73,0,23.68-10.55,23.68-26.07C939.1,217.68,929.15,207.33,915.41,207.33z"/>
</g>
</svg>
