<?xml version="1.0" encoding="utf-8"?>
<!-- Generator: Adobe Illustrator 23.1.1, SVG Export Plug-In . SVG Version: 6.00 Build 0)  -->
<svg version="1.1" id="Layer_1" xmlns="http://www.w3.org/2000/svg" xmlns:xlink="http://www.w3.org/1999/xlink" x="0px" y="0px"
	 viewBox="0 0 599.31 600.85" style="enable-background:new 0 0 599.31 600.85;" xml:space="preserve">
<style type="text/css">
	.st0{fill:#FFFFFF;}
	.st1{fill:#5183F5;}
</style>
<path class="st1" d="M512.15,84.72C435.99,8.57,312.1,8.58,235.94,84.74l-205.9,205.9l2.06,268.53l272.94,8.89l207.11-207.11
	C588.31,284.79,588.31,160.88,512.15,84.72z M271.38,357.62l-40-40L217.8,331.2l-22.07-22.08l5.74-5.74
	c7.39-7.39,7.39-19.37,0-26.76l-14.54-14.54l21.82-21.82l27.92,27.92l23.21-23.21l22.07,22.08l-23.21,23.21l38.49,38.49
	c8.68,8.68,16.42,8.49,25.28-0.38c3.21-3.21,6.6-7.74,8.68-12.08l22.64,22.64c-2.64,4.91-7.92,12.45-13.58,18.11
	C320.25,377.05,297.79,384.03,271.38,357.62z M141.66,528.12c-0.23-12.79-3.46-25.39-9.43-36.77
	c-13.19-25.11-38.37-41.55-66.33-43.79L64.8,305.5c14.31,3.02,27.6,10.17,38.02,20.59c12.27,12.27,20.01,28.51,21.81,45.74
	c0.58,5.53,0.54,11.09-0.1,16.56c5.48-0.63,11.04-0.67,16.56-0.1c17.23,1.8,33.47,9.55,45.74,21.81
	c12.27,12.27,20.01,28.51,21.81,45.74c0.57,5.52,0.53,11.08-0.1,16.56c5.48-0.63,11.03-0.68,16.56-0.1
	c17.23,1.8,33.47,9.54,45.74,21.81c10.44,10.44,17.6,23.75,20.6,38.11L141.66,528.12z M402.34,174.59l58.3,58.3l-27.36,27.36
	l-52.07-52.07c-14.15-14.15-27.73-15.28-38.49-4.53c-10.76,10.75-9.62,24.34,4.53,38.49l52.07,52.07l-27.36,27.36l-94.33-94.34
	l26.98-26.98l13.4,13.4c-4.15-15.47,0.38-30.94,12.08-42.64C349.7,151.38,377.06,149.3,402.34,174.59z"/>
</svg>
