<?xml version="1.0" encoding="utf-8"?>
<!-- Generator: Adobe Illustrator 23.1.1, SVG Export Plug-In . SVG Version: 6.00 Build 0)  -->
<svg version="1.1" id="Layer_1" xmlns="http://www.w3.org/2000/svg" xmlns:xlink="http://www.w3.org/1999/xlink" x="0px" y="0px"
	 viewBox="0 0 1317.84 451.18" style="enable-background:new 0 0 1317.84 451.18;" xml:space="preserve">
<style type="text/css">
	.st0{fill:#FFFFFF;}
	.st1{fill:#5183F5;}
</style>
<g>
	<g>
		<g>
			<path class="st0" d="M380.62,153.77h-23.03v15.35c0,7.8-6.32,14.12-14.12,14.12h-6.06v23.3h14.34v42.22
				c0,27.88,15.53,36.04,36.64,36.04c5.97,0,12.75-1.19,16.73-2.39v-23.9c-3.39,1.19-7.57,1.79-10.95,1.79
				c-9.36,0-13.54-3.98-13.54-13.14v-40.63h24.5v-23.3h-24.5V153.77z"/>
			<path class="st0" d="M467.04,181.25c-23.1,0-45.41,10.16-45.41,36.24h28.48c0-9.76,6.17-15.14,16.13-15.14
				c8.96,0,15.73,4.18,15.73,11.15c0,19.52-63.33,0.6-63.33,42.82c0,19.72,16.13,28.48,32.66,28.48c13.74,0,25.29-4.98,31.66-17.13
				v15.13h27.88v-68.51C510.86,190.41,489.95,181.25,467.04,181.25z M482.38,243.18c0,13.34-10.36,20.31-22.3,20.31
				c-6.97,0-12.55-3.19-12.55-9.56c0-11.55,21.11-9.76,34.85-15.93V243.18z"/>
			<polygon class="st0" points="629.94,183.24 594.69,183.24 561.83,226.26 561.83,141.47 532.95,141.47 532.95,282.81 
				561.83,282.81 561.83,230.64 598.08,282.81 632.13,282.81 591.5,228.25 			"/>
			<path class="st0" d="M683.9,181.25c-29.27,0-50.38,21.31-50.38,51.78c0,30.47,21.11,51.78,50.38,51.78
				c24.5,0,41.82-11.55,47.99-33.46h-29.27c-2.79,6.57-8.76,9.76-17.92,9.76c-13.14,0-21.11-6.97-23.5-20.11h72.69
				c0.2-2.59,0.4-5.18,0.4-7.96C734.28,202.56,713.17,181.25,683.9,181.25z M661.4,224.06c2.39-12.55,10.36-19.12,22.5-19.12
				c12.15,0,20.11,6.57,22.5,19.12H661.4z"/>
			<path class="st0" d="M809.55,181.25c-12.35,0-22.9,5.77-28.88,16.13v-14.14H752.2v99.57h28.88v-54.96
				c0-14.94,6.57-22.7,17.92-22.7c11.35,0,17.92,7.77,17.92,22.7v54.96h28.88v-61.54C845.8,194.59,830.27,181.25,809.55,181.25z"/>
			<path class="st0" d="M914.5,181.25c-29.67,0-51.78,21.11-51.78,51.78c0,30.67,22.1,51.78,51.78,51.78s51.78-21.11,51.78-51.78
				C966.28,202.36,944.17,181.25,914.5,181.25z M914.5,259.11c-13.54,0-23.7-10.55-23.7-26.09c0-15.73,10.16-26.09,23.7-26.09
				c13.74,0,23.7,10.36,23.7,26.09C938.2,248.56,928.24,259.11,914.5,259.11z"/>
			<path class="st0" d="M1019.04,153.77h-23.03v15.35c0,7.8-6.32,14.12-14.12,14.12h-6.06v23.3h14.34v42.22
				c0,27.88,15.53,36.04,36.64,36.04c5.97,0,12.75-1.19,16.73-2.39v-23.9c-3.39,1.19-7.57,1.79-10.95,1.79
				c-9.36,0-13.54-3.98-13.54-13.14v-40.63h24.5v-23.3h-24.5V153.77z"/>
			<path class="st0" d="M1105.27,181.25c-29.27,0-50.38,21.31-50.38,51.78c0,30.47,21.11,51.78,50.38,51.78
				c24.5,0,41.82-11.55,47.99-33.46h-29.27c-2.79,6.57-8.76,9.76-17.92,9.76c-13.14,0-21.11-6.97-23.5-20.11h72.69
				c0.2-2.59,0.4-5.18,0.4-7.96C1155.65,202.56,1134.55,181.25,1105.27,181.25z M1082.77,224.06c2.39-12.55,10.36-19.12,22.5-19.12
				c12.15,0,20.11,6.57,22.5,19.12H1082.77z"/>
		</g>
		<path class="st0" d="M228.51,283.54c4.33,3.43,8.29,7.33,11.79,11.65c10.92,13.47,16.94,30.45,16.94,47.82
			c0,14.78-4.36,29.28-12.4,41.56L141.71,275.64c8.89-9.22,15.53-20.43,19.35-32.71c8.44-27.11,2.25-56.58-15.96-77.97l99.85-101.41
			h-0.09c8.02,12.29,12.38,26.77,12.38,41.55c0,17.37-6.02,34.35-16.94,47.82c-3.5,4.33-7.47,8.23-11.79,11.65
			c4.33,3.43,8.29,7.34,11.79,11.65c10.92,13.48,16.94,30.46,16.94,47.83c0,17.37-6.02,34.35-16.94,47.82
			C236.8,276.2,232.83,280.1,228.51,283.54z"/>
	</g>
	<path class="st0" d="M217.72,0l-8.82,8.96L20.25,200.54L0,221.09l19.72,21.06l186.94,199.53l8.9,9.5h876.68
		c124.39,0,225.6-101.21,225.6-225.6C1317.84,101.2,1216.64,0,1092.24,0H217.72z M1092.24,421.14H228.59L41.65,221.61L230.31,30.04
		h861.94c107.83,0,195.56,87.71,195.56,195.54C1287.81,333.42,1200.08,421.14,1092.24,421.14z"/>
</g>
</svg>
