<?xml version="1.0" encoding="utf-8"?>
<!-- Generator: Adobe Illustrator 23.1.1, SVG Export Plug-In . SVG Version: 6.00 Build 0)  -->
<svg version="1.1" id="Layer_1" xmlns="http://www.w3.org/2000/svg" xmlns:xlink="http://www.w3.org/1999/xlink" x="0px" y="0px"
	 viewBox="0 0 599.31 600.85" style="enable-background:new 0 0 599.31 600.85;" xml:space="preserve">
<style type="text/css">
	.st0{fill:#FFFFFF;}
	.st1{fill:#5183F5;}
</style>
<g>
	<path class="st0" d="M374.17,30c50.01,0,100.02,19.04,138.09,57.11c76.16,76.16,76.16,200.07,0,276.23L305.15,570.45l-272.94-8.89
		l-2.06-268.53l205.9-205.9C274.14,49.04,324.15,30,374.17,30 M374.17,0c-29.26,0-57.79,5.54-84.79,16.47
		c-27.99,11.33-53.06,27.96-74.54,49.44L8.94,271.81l-8.88,8.88l0.1,12.56l2.06,268.53l0.22,28.82l28.8,0.94l272.94,8.89l13,0.42
		l9.19-9.19l207.11-207.11c87.85-87.85,87.85-230.8,0-318.66C512,44.42,486.93,27.8,458.95,16.47C431.95,5.54,403.43,0,374.17,0
		L374.17,0z"/>
	<path class="st0" d="M208.8,242.85l-21.82,21.82l14.54,14.54c7.39,7.39,7.39,19.37,0,26.76l-5.74,5.74l22.07,22.08l13.58-13.58
		l40,40c26.41,26.41,48.87,19.43,68.87-0.57c5.66-5.66,10.94-13.21,13.58-18.11l-22.64-22.64c-2.08,4.34-5.47,8.87-8.68,12.08
		c-8.87,8.87-16.6,9.06-25.28,0.38l-38.49-38.49L282,269.64l-22.07-22.08l-23.21,23.21L208.8,242.85z"/>
	<path class="st0" d="M330.14,173.59c-11.7,11.7-16.23,27.17-12.08,42.64l-13.4-13.4l-26.98,26.98l94.34,94.34l27.36-27.36
		l-52.07-52.07c-14.15-14.15-15.28-27.73-4.53-38.49c10.75-10.75,24.34-9.62,38.49,4.53l52.07,52.07l27.36-27.36l-58.3-58.3
		C377.12,151.89,349.76,153.97,330.14,173.59z"/>
	<path class="st0" d="M208.65,474.78c5.48-0.63,11.03-0.68,16.56-0.1c17.23,1.8,33.47,9.54,45.74,21.81
		c10.44,10.44,17.6,23.75,20.6,38.11l-149.77-4.1c-0.23-12.79-3.46-25.39-9.43-36.77c-13.19-25.11-38.37-41.55-66.33-43.79
		l-1.1-142.14l-0.07,0.07c14.34,3.01,27.65,10.17,38.08,20.61c12.27,12.27,20.01,28.51,21.81,45.74c0.58,5.53,0.54,11.09-0.1,16.56
		c5.48-0.63,11.04-0.67,16.56-0.1c17.23,1.8,33.47,9.55,45.74,21.81c12.27,12.27,20.01,28.51,21.81,45.74
		C209.32,463.75,209.28,469.3,208.65,474.78z"/>
</g>
</svg>
